HIERARCHY
ROOT Hips
{
	OFFSET 0.00000 0.00000 0.00000
	CHANNELS 6 Xposition Yposition Zposition Zrotation Yrotation Xrotation 
	JOINT LHipJoint
	{
		OFFSET 0 0 0
		CHANNELS 3 Zrotation Yrotation Xrotation
		JOINT LeftUpLeg
		{
			OFFSET 1.54859 -1.61379 0.86856
			CHANNELS 3 Zrotation Yrotation Xrotation
			JOINT LeftLeg
			{
				OFFSET 2.25087 -6.18423 0.00000
				CHANNELS 3 Zrotation Yrotation Xrotation
				JOINT LeftFoot
				{
					OFFSET 2.40328 -6.60297 0.00000
					CHANNELS 3 Zrotation Yrotation Xrotation
					JOINT LeftToeBase
					{
						OFFSET 0.17435 -0.47901 2.02453
						CHANNELS 3 Zrotation Yrotation Xrotation
						End Site
						{
							OFFSET 0.00000 -0.00000 1.04844
						}
					}
				}
			}
		}
	}
	JOINT RHipJoint
	{
		OFFSET 0 0 0
		CHANNELS 3 Zrotation Yrotation Xrotation
		JOINT RightUpLeg
		{
			OFFSET -1.54669 -1.61379 0.86856
			CHANNELS 3 Zrotation Yrotation Xrotation
			JOINT RightLeg
			{
				OFFSET -2.28132 -6.26789 0.00000
				CHANNELS 3 Zrotation Yrotation Xrotation
				JOINT RightFoot
				{
					OFFSET -2.51636 -6.91365 0.00000
					CHANNELS 3 Zrotation Yrotation Xrotation
					JOINT RightToeBase
					{
						OFFSET -0.15124 -0.41552 2.21090
						CHANNELS 3 Zrotation Yrotation Xrotation
						End Site
						{
							OFFSET -0.00000 -0.00000 1.13399
						}
					}
				}
			}
		}
	}
	JOINT LowerBack
	{
		OFFSET 0 0 0
		CHANNELS 3 Zrotation Yrotation Xrotation
		JOINT Spine
		{
			OFFSET -0.04287 2.26161 -0.25690
			CHANNELS 3 Zrotation Yrotation Xrotation
			JOINT Spine1
			{
				OFFSET 0.02248 2.28395 -0.10140
				CHANNELS 3 Zrotation Yrotation Xrotation
				JOINT Neck
				{
					OFFSET 0 0 0
					CHANNELS 3 Zrotation Yrotation Xrotation
					JOINT Neck1
					{
						OFFSET -0.11644 1.38496 0.11345
						CHANNELS 3 Zrotation Yrotation Xrotation
						JOINT Head
						{
							OFFSET 0.29383 1.36600 0.06642
							CHANNELS 3 Zrotation Yrotation Xrotation
							End Site
							{
								OFFSET 0.11075 1.41395 -0.00294
							}
						}
					}
				}
				JOINT LeftShoulder
				{
					OFFSET 0 0 0
					CHANNELS 3 Zrotation Yrotation Xrotation
					JOINT LeftArm
					{
						OFFSET 3.51628 0.59542 -0.30346
						CHANNELS 3 Zrotation Yrotation Xrotation
						JOINT LeftForeArm
						{
							OFFSET 4.76405 -0.00000 0.00000
							CHANNELS 3 Zrotation Yrotation Xrotation
							JOINT LeftHand
							{
								OFFSET 3.13759 -0.00000 -0.00000
								CHANNELS 3 Zrotation Yrotation Xrotation
								JOINT LeftFingerBase
								{
									OFFSET 0 0 0
									CHANNELS 3 Zrotation Yrotation Xrotation
									JOINT LeftHandIndex1
									{
										OFFSET 0.73226 -0.00000 -0.00000
										CHANNELS 3 Zrotation Yrotation Xrotation
										End Site
										{
											OFFSET 0.59037 -0.00000 -0.00000
										}
									}
								}
								JOINT LThumb
								{
									OFFSET 0 0 0
									CHANNELS 3 Zrotation Yrotation Xrotation
									End Site
									{
										OFFSET 0.59938 -0.00000 0.59938
									}
								}
							}
						}
					}
				}
				JOINT RightShoulder
				{
					OFFSET 0 0 0
					CHANNELS 3 Zrotation Yrotation Xrotation
					JOINT RightArm
					{
						OFFSET -3.30990 0.84213 -0.36430
						CHANNELS 3 Zrotation Yrotation Xrotation
						JOINT RightForeArm
						{
							OFFSET -5.10161 -0.00000 -0.00000
							CHANNELS 3 Zrotation Yrotation Xrotation
							JOINT RightHand
							{
								OFFSET -3.23267 -0.00000 -0.00000
								CHANNELS 3 Zrotation Yrotation Xrotation
								JOINT RightFingerBase
								{
									OFFSET 0 0 0
									CHANNELS 3 Zrotation Yrotation Xrotation
									JOINT RightHandIndex1
									{
										OFFSET -0.70200 -0.00000 -0.00000
										CHANNELS 3 Zrotation Yrotation Xrotation
										End Site
										{
											OFFSET -0.56597 -0.00000 -0.00000
										}
									}
								}
								JOINT RThumb
								{
									OFFSET 0 0 0
									CHANNELS 3 Zrotation Yrotation Xrotation
									End Site
									{
										OFFSET -0.57461 -0.00000 0.57461
									}
								}
							}
						}
					}
				}
			}
		}
	}
}
MOTION
Frames: 10
Frame Time: .0083333
6.2308 16.2859 -0.2028 98.3564 79.3793 104.6910 0.0000 0.0000 0.0000 -26.0042 14.3122 15.3999 13.5365 18.9674 70.7839 -0.3551 12.0225 1.8568 1.7324 -8.2850 -23.5832 0.0000 0.0000 0.0000 9.2604 8.8963 -40.4653 -2.3733 -9.6037 27.7028 -0.0335 1.2828 -3.2504 -4.3953 12.6687 -38.1405 -11.3641 -4.3931 9.5039 0.2094 -6.4348 5.7098 6.9803 -3.4712 2.0517 -14.0658 -2.8336 -9.9336 16.9334 -1.1331 -11.0320 7.6017 -0.0565 -1.2947 -0.0000 0.0000 0.0000 -91.4024 17.5819 43.4228 99.8599 -59.6294 -68.5283 -0.0000 0.0000 -21.8587 42.4314 21.6679 18.6506 -7.1250 0.0000 -0.0000 15.7009 57.5762 4.9155 -0.0000 0.0000 0.0000 75.0106 -48.9425 46.9321 -108.6334 58.6466 -76.0637 0.0000 -0.0000 -19.0929 -53.4228 37.8794 -39.6058 7.1250 -0.0000 -0.0000 -9.3698 21.9932 -12.3200
6.8895 16.2108 -0.2147 96.6287 79.8279 102.2490 0.0000 0.0000 0.0000 -24.5751 15.0459 13.2161 15.8452 19.5810 77.7700 -0.4069 12.2165 0.6717 1.3337 -7.3129 -20.6457 0.0000 0.0000 0.0000 10.7136 7.9049 -38.4568 -2.5182 -9.8708 28.5595 -0.0202 1.3002 -2.5460 -4.8019 13.1572 -39.9597 -10.5846 -3.9216 9.6830 0.1965 -5.7139 6.2371 6.5023 -3.1084 2.2753 -14.0193 -3.0569 -10.1039 16.8110 -1.3532 -11.5175 7.5539 -0.1506 -1.3767 -0.0000 -0.0000 0.0000 -91.3804 18.4765 43.3603 91.2830 -59.9938 -61.1111 -0.0000 0.0000 -24.0959 41.5674 22.3013 18.5996 -7.1250 0.0000 -0.0000 14.6777 58.1047 4.7734 -0.0000 -0.0000 0.0000 78.2421 -46.0918 44.7526 -108.3685 58.6859 -75.8374 0.0000 -0.0000 -18.6482 -52.7283 37.6215 -38.7345 7.1250 -0.0000 -0.0000 -9.1353 21.3194 -11.9466
7.5413 16.1266 -0.2273 95.6797 80.3220 100.8020 0.0000 0.0000 0.0000 -22.9764 15.4856 10.7265 18.1746 19.9199 84.6560 -0.4132 12.1363 0.2538 0.9132 -6.0891 -17.0431 0.0000 0.0000 0.0000 11.8395 7.2256 -36.6237 -2.7522 -10.2826 29.8968 -0.0045 1.6091 -1.5424 -4.6585 12.9886 -39.3258 -9.5647 -3.5042 9.7914 0.1466 -5.0562 6.6176 5.8506 -2.7540 2.3786 -14.1016 -3.4305 -10.0493 16.9350 -1.7733 -12.0912 7.6066 -0.3524 -1.4795 -0.0000 0.0000 0.0000 -90.9315 19.4386 43.5873 82.4209 -59.7818 -53.4411 -0.0000 0.0000 -25.4007 41.1087 23.1746 18.9528 -7.1250 0.0000 -0.0000 14.1578 59.0199 4.9122 -0.0000 0.0000 0.0000 81.0888 -43.1142 43.1923 -107.9919 58.7408 -75.5156 0.0000 -0.0000 -18.2511 -52.1256 37.6971 -38.1749 7.1250 -0.0000 -0.0000 -8.8142 21.0533 -11.4959
8.1967 16.0363 -0.2395 95.8541 80.7480 100.4680 0.0000 0.0000 0.0000 -21.2104 15.7411 8.1690 20.4372 19.9954 91.2783 -0.3601 11.5240 0.6811 0.7112 -5.3896 -15.0232 0.0000 0.0000 0.0000 12.6901 6.5397 -34.8884 -3.1015 -10.8576 31.8012 0.0116 2.3916 -0.6554 -4.5063 12.8052 -38.6437 -8.7205 -3.1096 10.1881 0.2546 -4.4932 6.7539 5.4918 -2.4350 2.1339 -14.3397 -3.7150 -9.7919 16.9334 -2.1140 -12.5673 7.6478 -0.5190 -1.6019 0.0000 0.0000 0.0000 -90.4715 20.7550 44.1222 73.9716 -59.0067 -46.1653 -0.0000 0.0000 -25.7908 41.1773 24.7970 20.1464 -7.1250 0.0000 -0.0000 14.3363 60.9518 5.6385 0.0000 0.0000 0.0000 83.0355 -40.2378 42.3352 -107.5112 58.8090 -75.1045 0.0000 -0.0000 -17.9805 -51.6994 37.9294 -37.8943 7.1250 -0.0000 -0.0000 -8.5185 21.0554 -11.1037
8.8399 15.9415 -0.2468 97.8897 81.1300 102.0750 0.0000 0.0000 0.0000 -19.2461 15.6127 5.3846 22.6450 19.8314 97.7545 -0.2861 10.8172 1.6912 0.3869 -3.9943 -11.0607 0.0000 0.0000 0.0000 13.4513 5.8021 -33.2765 -3.5282 -11.5046 34.0012 0.0749 5.4915 -0.7468 -0.5459 4.7334 -13.1498 -8.1590 -2.7481 10.7670 0.6318 -4.0134 6.7869 5.5834 -2.1675 1.7559 -14.8578 -3.9546 -9.5899 16.8766 -2.3708 -13.0410 7.7239 -0.6269 -1.7268 -0.0000 -0.0000 0.0000 -90.2487 21.9455 44.9328 65.5893 -57.6241 -39.0283 -0.0000 0.0000 -25.4207 41.6233 26.2863 21.4800 -7.1250 0.0000 -0.0000 15.0268 62.8199 6.5810 -0.0000 -0.0000 0.0000 84.2495 -37.1327 41.8597 -107.0762 58.8690 -74.7323 0.0000 -0.0000 -18.0055 -51.6171 37.8113 -37.7387 7.1250 -0.0000 -0.0000 -8.5241 20.8859 -11.0968
9.5011 15.8868 -0.2621 97.1925 81.7672 101.0320 0.0000 0.0000 0.0000 -17.0441 15.9693 2.4556 24.6098 19.4827 103.5908 -0.2033 9.5047 2.0556 0.2760 -3.3789 -9.3355 0.0000 0.0000 0.0000 14.5662 5.4001 -31.6923 -4.0598 -12.2395 36.5847 0.0358 9.8131 -6.2516 -0.0374 1.2475 -3.4301 -7.2466 -2.2496 11.0580 0.8865 -3.2943 6.8300 5.3030 -1.7722 1.4764 -15.0389 -4.1711 -8.8739 16.6528 -2.6706 -13.8833 7.6992 -0.7865 -2.0447 -0.0000 0.0000 0.0000 -89.6429 23.0864 46.0095 57.8124 -55.6983 -32.5273 -0.0000 0.0000 -24.2715 42.6453 26.9708 22.6708 -7.1250 0.0000 -0.0000 16.5656 63.9195 7.7002 -0.0000 0.0000 0.0000 85.5597 -33.7978 41.6513 -106.4948 58.9466 -74.2344 0.0000 -0.0000 -18.3455 -51.8061 37.8196 -37.9321 7.1250 -0.0000 -0.0000 -8.6124 21.0007 -11.2236
10.1304 15.8207 -0.2635 97.7676 82.3815 101.4450 0.0000 0.0000 0.0000 -14.7844 15.9544 -1.0656 26.5098 18.9521 109.3587 -0.1100 8.0337 2.9146 0.2307 -3.0917 -8.5343 0.0000 0.0000 0.0000 15.5755 6.0074 -29.9843 -4.6262 -12.9501 39.1819 -0.3135 6.6437 -10.3203 -0.1757 2.7000 -7.4447 -6.5630 -1.7497 11.1856 1.2367 -2.5660 6.9920 5.2293 -1.3923 1.4488 -14.7568 -4.4979 -8.1552 15.9548 -3.1526 -15.1028 7.4460 -1.0361 -2.4745 -0.0000 0.0000 0.0000 -88.8387 23.7255 47.4222 51.1802 -53.4605 -27.1195 -0.0000 0.0000 -22.7305 43.5527 27.7240 23.8591 -7.1250 0.0000 -0.0000 18.0392 65.0692 8.8879 -0.0000 0.0000 0.0000 86.6932 -29.7643 41.6573 -106.1884 58.9863 -73.9718 0.0000 -0.0000 -19.0651 -51.5289 37.9267 -37.7228 7.1250 -0.0000 -0.0000 -8.4371 20.9571 -10.9876
10.7403 15.7442 -0.2531 98.3680 83.0390 101.8620 0.0000 0.0000 0.0000 -12.3604 15.9008 -4.9112 28.2556 18.2805 114.8235 -0.0079 6.1884 4.1186 0.2745 -3.3702 -9.3112 0.0000 0.0000 0.0000 16.7010 7.1476 -27.9681 -5.1293 -13.5279 41.3783 -0.5667 2.6297 -13.5638 -0.3775 3.9462 -10.9252 -5.6936 -1.2605 11.6658 1.3440 -1.8526 7.1036 4.8012 -0.9963 1.1685 -14.2701 -4.8156 -7.9449 15.5500 -3.5798 -15.8708 7.2407 -1.2528 -2.6948 -0.0000 0.0000 0.0000 -87.4450 24.4479 48.9429 45.8437 -51.1752 -22.8942 -0.0000 0.0000 -21.1106 43.4521 29.4051 24.9453 -7.1250 0.0000 -0.0000 18.0890 66.9734 9.7032 -0.0000 0.0000 0.0000 88.0305 -25.5874 41.9362 -106.5474 58.9397 -74.2795 0.0000 -0.0000 -19.9062 -50.8295 37.3811 -36.6927 7.1250 -0.0000 -0.0000 -8.3042 19.9986 -10.7312
11.3358 15.6541 -0.2372 99.8063 84.3271 103.2350 0.0000 0.0000 0.0000 -8.9727 15.8785 -8.9818 29.8154 17.5124 119.8964 0.0857 3.3383 5.3574 0.3102 -3.5804 -9.8991 0.0000 0.0000 0.0000 18.6549 8.2769 -25.4866 -5.4133 -13.8346 42.5789 -0.7596 1.7324 -15.9689 -0.2607 3.2846 -9.0721 -4.3684 -0.7972 12.1967 1.6727 -1.1295 7.0790 4.3352 -0.5836 0.7277 -14.0246 -5.1286 -7.4945 15.4477 -3.9587 -16.9094 7.1950 -1.4459 -3.0258 -0.0000 0.0000 0.0000 -86.1751 25.6504 50.3163 41.8616 -49.1350 -19.8358 -0.0000 0.0000 -19.4844 42.6602 31.3911 25.6401 -7.1250 0.0000 -0.0000 16.8880 68.9769 9.8071 -0.0000 0.0000 0.0000 88.9251 -21.5198 42.4282 -107.2776 58.8415 -74.9046 0.0000 -0.0000 -21.0328 -50.2044 36.2052 -35.3392 7.1250 -0.0000 -0.0000 -8.4281 18.4097 -10.7519
11.9387 15.5999 -0.2277 97.5107 86.6846 100.7710 0.0000 0.0000 0.0000 -4.1870 16.5256 -12.4664 30.9941 16.8115 123.8895 0.1094 -0.5685 6.4809 0.2682 -3.3315 -9.2031 0.0000 0.0000 0.0000 21.7648 8.5426 -22.3727 -5.4445 -13.8675 42.7093 -0.9366 0.6863 -18.0756 -0.5232 4.6356 -12.8722 -2.3459 -0.2559 12.6664 2.4191 -0.1903 7.2229 3.8693 -0.0562 0.5027 -13.9315 -5.4643 -7.4364 15.3429 -4.3232 -17.7734 7.1647 -1.6057 -3.2442 -0.0000 -0.0000 0.0000 -85.2717 27.0346 51.5791 39.2857 -47.6410 -17.9096 -0.0000 0.0000 -18.6486 42.0485 32.5505 25.8864 -7.1250 0.0000 -0.0000 15.7984 70.0799 9.5509 -0.0000 -0.0000 0.0000 89.0996 -16.9013 43.2114 -108.1528 58.7175 -75.6531 0.0000 -0.0000 -22.4908 -50.0526 36.8485 -35.6039 7.1250 -0.0000 -0.0000 -8.1204 19.0142 -10.4059
